<?xml version="1.0" encoding="utf-8"?>
<!-- Generator: Adobe Illustrator 19.2.1, SVG Export Plug-In . SVG Version: 6.00 Build 0)  -->
<svg version="1.1" id="layer" xmlns="http://www.w3.org/2000/svg" xmlns:xlink="http://www.w3.org/1999/xlink" x="0px" y="0px"
	 viewBox="0 0 652 652" style="enable-background:new 0 0 652 652;" xml:space="preserve">
<g id="Page-1">
	<g id="Desktop_x2F_Legal" transform="translate(-43.000000, -20.000000)">
		<g id="Imported-Layers-2" transform="translate(43.000000, 20.000000)">
			<path id="Fill-1" d="M131.3,318.2l-10.8-4.6l-19.1,11.5l-7-18.8l-12.9,8.2l1.6,3.9l28,11.2L100.8,358l6.4,2.2l-2.8,7.6l-14.2-5
				l10.2-28.5l-13.8-5.6l6.3,16.1l-34.7,0.1l-1.9,6.2l-7.7-2.8l4-11.3h28.8L71.7,311l19.7-12.1l-4.1-10.9L72,308.7l-12-4.8l3.3-7.9
				l6.3,2.6l15.7-21l8.3,3.4l12.1,32l14.4-8.5l14.5,5.9L131.3,318.2L131.3,318.2z M111.8,295.9c2.1,0,3.9-1.7,3.9-3.9
				c0-2.2-1.7-3.9-3.9-3.9c-2.1,0-3.9,1.7-3.9,3.9C107.9,294.1,109.7,295.9,111.8,295.9L111.8,295.9z M100.2,292
				c0-6.5,5.2-11.7,11.6-11.7s11.6,5.2,11.6,11.7c0,6.5-5.2,11.7-11.6,11.7S100.2,298.4,100.2,292L100.2,292z"/>
			<path id="Fill-2" d="M20.7,321.9c0,39.4,31.7,71.4,70.7,71.4s70.7-32,70.7-71.4s-31.7-71.4-70.7-71.4S20.7,282.6,20.7,321.9
				L20.7,321.9z M26.5,321.9c0-36.1,29.1-65.6,64.9-65.6s64.9,29.4,64.9,65.6s-29.1,65.6-64.9,65.6S26.5,358.1,26.5,321.9
				L26.5,321.9z"/>
			<path id="Fill-3" d="M595.7,309.6v19.3h-39.2v5.2h39.3v14h-39.2v4.8h39.2v15.1h-71.5v-58.3H595.7"/>
			<path id="Fill-4" d="M485.6,309.6h32.2v58.3h-32.2V309.6z"/>
			<path id="Fill-5" d="M484.6,309.6h-39l-15.2,22.6v-22.6H398v58.3h32.2v-19l15.5,19h37.1l-25.3-28.1L484.6,309.6"/>
			<path id="Fill-6" d="M287.5,323.9l7.1,20.7h-10.2v16.1h13.8l2,7.1h33.8l-20.7-58.3h-51.3l-20.7,58.3h32.7L287.5,323.9"/>
			<path id="Fill-7" d="M241.2,309.6v58.3h-30.4v-29.4l-11.5,29.4h-17.1l-11.5-30.7v30.7h-30v-58.4h40.7l10,30l9.5-29.9L241.2,309.6
				"/>
			<path id="Fill-8" d="M620.7,361.3c0,4.1-2.9,7.8-10,7.8c-7.1,0-10-4.1-10-7.8c0-3.7,2.9-7.8,10-7.8
				C617.9,353.5,620.7,357.2,620.7,361.3"/>
			<path id="Fill-9" d="M393,310.4c0,0-14.4-2-27.6-2c-17.8,0-38.8,5.7-38.8,31.2c0,15.8,11.4,30,36.4,30c14.9,0,29.7-3.2,29.7-3.2
				v-19.2c0,0-5.6,2.3-18.2,2.3c-13.7,0-14-5.6-14-9.8c0-4.2,4.4-8.3,14.6-8.3c12,0,17.9,1.7,17.9,1.7V310.4"/>
			<path id="Fill-10" d="M600.4,313.7c0-3.1,2.5-5.6,5.5-5.6c3,0,5.5,2.5,5.5,5.6c0,3.1-2.4,5.6-5.5,5.6
				C602.9,319.3,600.4,316.8,600.4,313.7L600.4,313.7z M610.7,313.7c0-2.7-2.2-4.9-4.8-4.9c-2.7,0-4.8,2.2-4.8,4.9
				c0,2.7,2.1,4.9,4.8,4.9C608.5,318.7,610.7,316.5,610.7,313.7L610.7,313.7z M608.6,316.9h-0.9L606,314h-1.4v2.9h-0.7v-6.2h2.7
				c0.5,0,1,0,1.5,0.3c0.5,0.3,0.7,0.8,0.7,1.3c0,1.2-0.8,1.7-1.9,1.7L608.6,316.9L608.6,316.9z M605.7,313.4h0.5
				c0.8,0,1.7-0.1,1.7-1.1c0-1-0.8-1.1-1.6-1.1h-1.7v2.2H605.7L605.7,313.4z"/>
			<path id="Fill-11" d="M79.8,361.6c0-2,1.6-3.7,3.7-3.7c2,0,3.6,1.7,3.6,3.7c0,2.1-1.6,3.7-3.6,3.7
				C81.4,365.3,79.8,363.6,79.8,361.6L79.8,361.6z M86.6,361.6c0-1.8-1.4-3.3-3.2-3.3c-1.8,0-3.2,1.5-3.2,3.3c0,1.8,1.4,3.3,3.2,3.3
				C85.2,364.9,86.6,363.4,86.6,361.6L86.6,361.6z M85.2,363.7h-0.6l-1.2-1.9h-0.9v1.9h-0.5v-4.2h1.8c0.3,0,0.7,0,1,0.2
				c0.3,0.2,0.5,0.6,0.5,0.9c0,0.8-0.6,1.1-1.3,1.1L85.2,363.7L85.2,363.7z M83.3,361.3h0.3c0.5,0,1.1-0.1,1.1-0.8
				c0-0.6-0.6-0.7-1.1-0.7h-1.2v1.5H83.3L83.3,361.3z"/>
		</g>
	</g>
</g>
</svg>
